<svg width="40" height="40" viewBox="0 0 40 40" fill="none" xmlns="http://www.w3.org/2000/svg">
<g filter="url(#filter0_d)">
<rect x="4" width="32" height="32" rx="8" fill="#EEEEEE"/>
<path d="M9.82556 20.9805C9.22692 20.1301 8.94069 19.1128 9.01202 18.0891V13.9109C8.9365 12.8797 9.21841 11.8534 9.81393 10.9917C10.3524 10.3269 11.2725 9.99632 12.5741 10C13.8758 10.0037 14.7571 10.2953 15.2181 10.8747C15.7803 11.5927 16.0545 12.4804 15.991 13.3761V14.3566H13.5853V13.2925C13.582 13.0125 13.5568 12.7332 13.5097 12.4568C13.4806 12.2568 13.3848 12.0711 13.2366 11.9276C13.1451 11.8524 13.0389 11.7954 12.9241 11.76C12.8094 11.7246 12.6884 11.7115 12.5683 11.7215C12.3959 11.6968 12.2197 11.7237 12.0637 11.7984C11.9077 11.8732 11.7796 11.9922 11.6967 12.1393C11.5439 12.5305 11.4766 12.9477 11.4991 13.3649V18.6685C11.4726 19.0885 11.5503 19.5085 11.7257 19.8942C11.8096 20.0333 11.934 20.1459 12.0837 20.2181C12.2334 20.2904 12.4018 20.3191 12.5683 20.3008C12.7319 20.323 12.8987 20.2951 13.0448 20.2211C13.1909 20.147 13.3088 20.0307 13.3819 19.8886C13.5224 19.4966 13.5836 19.0825 13.562 18.6685V17.5543H15.9678V18.5181C16.0386 19.427 15.7867 20.3321 15.253 21.0864C14.7416 21.6992 13.8584 22 12.6032 22C11.348 22 10.366 21.6657 9.82556 20.9805Z" fill="#111111"/>
<path d="M19.2091 10H21.8074L24 22H21.8402L21.4511 19.3486H19.6312L19.1926 21.9829H17L19.2091 10ZM21.2099 17.84L20.5192 13.0171L19.834 17.84H21.2099Z" fill="#111111"/>
<path d="M25.8134 11.8083H24V10H30V11.8083H28.209V22H25.8078L25.8134 11.8083Z" fill="#111111"/>
</g>
<defs>
<filter id="filter0_d" x="0" y="0" width="40" height="40" filterUnits="userSpaceOnUse" color-interpolation-filters="sRGB">
<feFlood flood-opacity="0" result="BackgroundImageFix"/>
<feColorMatrix in="SourceAlpha" type="matrix" values="0 0 0 0 0 0 0 0 0 0 0 0 0 0 0 0 0 0 127 0"/>
<feOffset dy="4"/>
<feGaussianBlur stdDeviation="2"/>
<feColorMatrix type="matrix" values="0 0 0 0 0 0 0 0 0 0 0 0 0 0 0 0 0 0 0.25 0"/>
<feBlend mode="normal" in2="BackgroundImageFix" result="effect1_dropShadow"/>
<feBlend mode="normal" in="SourceGraphic" in2="effect1_dropShadow" result="shape"/>
</filter>
</defs>
</svg>
