<svg width="40" height="40" fill="none" xmlns="http://www.w3.org/2000/svg"><g filter="url(#filter0_d)"><rect x="4" width="32" height="32" rx="8" fill="#EEE"/><path d="M9.826 20.98a4.476 4.476 0 01-.814-2.89v-4.18a4.545 4.545 0 01.802-2.918c.538-.665 1.459-.996 2.76-.992 1.302.004 2.183.295 2.644.875.562.718.837 1.605.773 2.501v.98h-2.406v-1.063a5.349 5.349 0 00-.075-.836.922.922 0 00-.273-.53.918.918 0 00-.669-.205.881.881 0 00-.504.076.833.833 0 00-.367.341c-.153.392-.22.809-.198 1.226v5.304c-.026.42.051.84.227 1.225.084.14.208.252.358.324.15.072.318.101.484.083a.814.814 0 00.477-.08.768.768 0 00.337-.332 3.13 3.13 0 00.18-1.22v-1.115h2.406v.964a3.915 3.915 0 01-.715 2.568c-.511.613-1.395.914-2.65.914s-2.237-.334-2.777-1.02zM19.21 10h2.597L24 22h-2.16l-.389-2.651h-1.82l-.438 2.634H17L19.21 10zm2 7.84l-.69-4.823-.686 4.823h1.376zm4.603-6.032H24V10h6v1.808h-1.791V22h-2.401l.005-10.192z" fill="#111"/></g><defs><filter id="filter0_d" x="0" y="0" width="40" height="40" filterUnits="userSpaceOnUse" color-interpolation-filters="sRGB"><feFlood flood-opacity="0" result="BackgroundImageFix"/><feColorMatrix in="SourceAlpha" values="0 0 0 0 0 0 0 0 0 0 0 0 0 0 0 0 0 0 127 0"/><feOffset dy="4"/><feGaussianBlur stdDeviation="2"/><feColorMatrix values="0 0 0 0 0 0 0 0 0 0 0 0 0 0 0 0 0 0 0.25 0"/><feBlend in2="BackgroundImageFix" result="effect1_dropShadow"/><feBlend in="SourceGraphic" in2="effect1_dropShadow" result="shape"/></filter></defs></svg>